<svg data-v-88704970="" xmlns="http://www.w3.org/2000/svg" width="12.798" height="12.793" viewBox="0 0 12.798 12.793" style="fill:#fff;"><g data-v-88704970="" id="icon_addcalendar" transform="translate(-5483.028 436.686)"><path data-v-88704970="" id="Path_1773" data-name="Path 1773" d="M5492.412-435.844c0-.141,0-.274,0-.407a.426.426,0,0,1,.427-.435.428.428,0,0,1,.425.437c0,.133,0,.265,0,.415.309,0,.609-.013.909,0a2.2,2.2,0,0,1,.6.1,1.58,1.58,0,0,1,1.051,1.491q0,4.369,0,8.739a1.6,1.6,0,0,1-1.6,1.6q-4.8.006-9.594,0a1.608,1.608,0,0,1-1.6-1.606q0-4.363,0-8.726a1.613,1.613,0,0,1,1.6-1.606c.314,0,.628,0,.955,0,0-.145,0-.277,0-.409a.427.427,0,0,1,.432-.443.429.429,0,0,1,.421.442c0,.132,0,.264,0,.4H5489c0-.111,0-.224,0-.337a.429.429,0,0,1,.422-.466.427.427,0,0,1,.431.47c0,.106,0,.213,0,.33Zm-8.53,3.428v.147q0,3.344,0,6.689a.769.769,0,0,0,.839.834h9.41a.769.769,0,0,0,.839-.834q0-3.344,0-6.689v-.146Zm5.12-2.554h-2.561c0,.133,0,.257,0,.381a.432.432,0,0,1-.428.462.431.431,0,0,1-.426-.464c0-.127,0-.254,0-.386-.351,0-.684-.012-1.016,0a.726.726,0,0,0-.664.58,2.046,2.046,0,0,0-.025.384c0,.242,0,.485,0,.725h11.089c0-.316,0-.623,0-.929a.76.76,0,0,0-.773-.765c-.275,0-.551,0-.827,0-.034,0-.067.006-.1.01v.169c0,.47-.131.675-.431.673s-.423-.2-.423-.666v-.178h-2.557c0,.149,0,.29,0,.432a.424.424,0,0,1-.423.451.429.429,0,0,1-.43-.446C5489-434.677,5489-434.819,5489-434.97Z" transform="translate(0 0)"></path> <path data-v-88704970="" id="Path_1774" data-name="Path 1774" d="M5557.106-330.7v-.263c0-.471,0-.941,0-1.412a.428.428,0,0,1,.432-.457.429.429,0,0,1,.421.455c0,.506,0,1.012,0,1.518v.159h1.658a.432.432,0,0,1,.474.429.433.433,0,0,1-.478.424h-1.654v.15q0,.753,0,1.5a.433.433,0,0,1-.426.477.433.433,0,0,1-.427-.475c0-.546,0-1.091,0-1.656h-1.652a.434.434,0,0,1-.48-.423.433.433,0,0,1,.485-.43Z" transform="translate(-68.107 -98.311)"></path></g></svg>