<svg xmlns="http://www.w3.org/2000/svg" width="15.394" height="11.895"><path data-name="Path 1765" d="M15.393 4.514a.776.776 0 0 0-.217-.6 2.871 2.871 0 0 0-.692-.533 8.392 8.392 0 0 0-1.455-.56 31.018 31.018 0 0 0-3.833-.59v-.25h.438c.2 0 .3-.091.3-.291V.29c0-.2-.09-.3-.291-.3H5.751c-.192 0-.283.094-.284.289V1.69c0 .192.094.282.288.285h.449v.248c-.853.107-2.428.326-2.47.334-.363.066-1.542.31-1.68.354a4.712 4.712 0 0 0-1.612.766 1.1 1.1 0 0 0-.44.91c.011 1.628.017 3.256 0 4.884a1.245 1.245 0 0 0 .568 1.1 4.832 4.832 0 0 0 1.535.68 19.1 19.1 0 0 0 4.58.616 27.24 27.24 0 0 0 4.378-.186 12.708 12.708 0 0 0 2.775-.618 3.247 3.247 0 0 0 1.25-.722.989.989 0 0 0 .307-.72q-.006-2.549-.002-5.107ZM5.968 1.477V.503h3.454v.974Zm2.715.518v.246H6.718v-.246ZM.656 4.157a2.669 2.669 0 0 1 .64-.425 8.755 8.755 0 0 1 2.166-.626 22.787 22.787 0 0 1 4.643-.373 19.592 19.592 0 0 1 5.219.712 7.444 7.444 0 0 1 1.057.434 1.3 1.3 0 0 1 .393.318.385.385 0 0 1-.018.571 1.489 1.489 0 0 1-.429.324c-.38.17-.775.308-1.166.456a.261.261 0 0 1-.135 0q-.828-.164-1.654-.332c-.02 0-.039-.01-.081-.022.348-.347.68-.672 1-1.007a.369.369 0 0 0 .106-.254.272.272 0 0 0-.167-.19.331.331 0 0 0-.26.073c-.226.2-.435.427-.651.643-.193.194-.384.391-.583.579a.259.259 0 0 1-.172.071c-.865-.057-1.731-.121-2.622-.185V3.532c0-.2-.092-.309-.247-.311s-.25.111-.25.307v1.421c-.327.012-.646.018-.964.038q-.8.051-1.592.119a.288.288 0 0 1-.259-.089c-.391-.4-.788-.791-1.181-1.188a.28.28 0 0 0-.3-.1c-.188.064-.222.279-.065.439l.9.9c.036.036.07.074.124.13-.239.042-.459.076-.677.121-.333.069-.664.15-1 .217a.49.49 0 0 1-.254-.007c-.38-.142-.762-.286-1.133-.453a1.368 1.368 0 0 1-.392-.3.4.4 0 0 1 .006-.618Zm11.23 1.673a24.142 24.142 0 0 1-8.374 0 24.074 24.074 0 0 1 8.376.001ZM.501 5.486v-.174a6.746 6.746 0 0 0 2.623.982 24.651 24.651 0 0 0 6.235.352 18.248 18.248 0 0 0 3.672-.539 7.885 7.885 0 0 0 .955-.315c.308-.126.6-.293.9-.444 0 .034.006.083.006.132 0 .532-.007 1.065 0 1.6a.646.646 0 0 1-.259.55 3.458 3.458 0 0 1-1.166.559 15.423 15.423 0 0 1-2.99.584 25.6 25.6 0 0 1-3.467.156 17.724 17.724 0 0 1-4.759-.652 12.1 12.1 0 0 1-1.219-.485 1.406 1.406 0 0 1-.317-.219.572.572 0 0 1-.222-.486c.017-.535.01-1.068.01-1.6Zm8.428 5.9H6.468v-.958h2.461Zm5.716-1.31a4.565 4.565 0 0 1-.709.406 9.732 9.732 0 0 1-2.465.646c-.618.091-1.241.146-1.862.216-.051.006-.1.005-.176.009v-1.1c0-.244-.083-.326-.325-.327H6.286c-.245 0-.327.081-.327.324v1.054a.263.263 0 0 1-.013.049c-.158-.011-.32-.019-.482-.033a15.639 15.639 0 0 1-3.229-.564 12.069 12.069 0 0 1-1.217-.491 1.3 1.3 0 0 1-.3-.214.57.57 0 0 1-.216-.474c.009-.5 0-1 0-1.5.26.136.5.281.758.394a9.742 9.742 0 0 0 2.4.651 25.932 25.932 0 0 0 5.966.243 16.31 16.31 0 0 0 3.93-.672 4.749 4.749 0 0 0 1.327-.638c0 .058.011.1.011.143 0 .455-.008.91 0 1.365a.564.564 0 0 1-.246.514Z"/><path data-name="Path 1766" d="M1.496 6.825v.37a.246.246 0 0 1-.244.248.241.241 0 0 1-.248-.243q-.01-.378 0-.756a.24.24 0 0 1 .25-.24.246.246 0 0 1 .242.25c.005.123 0 .247 0 .371Z"/><path data-name="Path 1767" d="M14.399 6.825v.355a.249.249 0 0 1-.243.265.246.246 0 0 1-.251-.257q-.007-.363 0-.726a.245.245 0 0 1 .25-.257.248.248 0 0 1 .244.264c.004.118 0 .236 0 .356Z"/><path data-name="Path 1768" d="M3.233 7.325v.355a.248.248 0 0 1-.248.26.245.245 0 0 1-.246-.261v-.726a.247.247 0 1 1 .494 0c.004.124 0 .248 0 .372Z"/><path data-name="Path 1769" d="M12.664 7.335v.355a.247.247 0 1 1-.493-.006q-.008-.363 0-.726a.244.244 0 0 1 .249-.257.248.248 0 0 1 .245.263l-.001.371Z"/><path data-name="Path 1770" d="M4.969 7.816v-.37a.244.244 0 0 1 .243-.248.241.241 0 0 1 .25.242q.01.378 0 .756a.242.242 0 0 1-.25.241.249.249 0 0 1-.243-.249.216.216 0 0 1 0-.031v-.34Z"/><path data-name="Path 1771" d="M10.428 7.818v.37a.245.245 0 0 1-.244.248.241.241 0 0 1-.248-.243c-.006-.252-.007-.5 0-.756a.24.24 0 0 1 .25-.24.246.246 0 0 1 .242.25c.005.123 0 .247 0 .371Z"/><path data-name="Path 1772" d="M7.948 7.941v.355a.249.249 0 0 1-.244.264.245.245 0 0 1-.25-.257q-.007-.363 0-.726a.244.244 0 0 1 .251-.256.249.249 0 0 1 .243.265c.003.118 0 .237 0 .355Z"/></svg>