<svg xmlns="http://www.w3.org/2000/svg" width="62.656" height="14.692" viewBox="0 0 62.656 14.692"><g id="icon_arrow" transform="translate(508.819 630.987)"><path id="Rectangle_17" data-name="Rectangle 17" d="M1.553,0H51.734a0,0,0,0,1,0,0V3.106a0,0,0,0,1,0,0H1.553A1.553,1.553,0,0,1,0,1.553v0A1.553,1.553,0,0,1,1.553,0Z" transform="translate(-508.819 -625.194)" fill="#fff"></path> <path id="Path_184" data-name="Path 184" d="M-296.688-625.871v-6.742a.6.6,0,0,1,.946-.5l4.742,3.29,4.975,3.451a.6.6,0,0,1,0,.991L-291-621.924l-4.742,3.29a.6.6,0,0,1-.946-.5Z" transform="translate(-160.397 2.23)" fill="#fff"></path></g></svg>