<svg xmlns="http://www.w3.org/2000/svg" width="52.571" height="18.068"><g data-name="Group 17"><g data-name="Group 10"><path data-name="Path 65" d="m24.071 16.356-1.5-.2-.024-.354c.5-.046 1-.1 1.5-.136a9.211 9.211 0 0 0 1.132-.069.6.6 0 0 0 .383-.408.582.582 0 0 0-.277-.485c-1.205-.387-2.368-1.282-3.768-.3l-.1-.707c-1 .44-1.277-.53-1.784-.991-.185-.169-.121-.833.059-1.136.5-.843 1.2-1.57 1.663-2.428a4.214 4.214 0 0 0 .622-2.143c-.057-.776-.923-.842-1.444-.923l-1.731 3.165-.851-.34-.544.822-.7-.334-.51.617c-1.349-.653-1.332-.63-.192-1.455a19.268 19.268 0 0 0 1.757-1.5c.495-.459.83-.966-.03-1.509.68-.328.945-.121 1.047.492a2.4 2.4 0 0 0 .33.647c.172-.17.418-.31.5-.516a.959.959 0 0 1 1.213-.632 5.816 5.816 0 0 1 1.516.479 1.354 1.354 0 0 1 .75 1.783c-.272.679-.665 1.309-.994 1.967a9.532 9.532 0 0 0-.659 1.442.992.992 0 0 0 .137.857.99.99 0 0 0 .9.123 4.76 4.76 0 0 0 1.172-.916c.633-.624 1.185-1.334 1.845-1.925 1.6-1.434 3.34-1.008 4.227.949a7.485 7.485 0 0 0 1.1 1.794 1.842 1.842 0 0 0 2.28.288 1.912 1.912 0 0 0 .78-2.289 1.89 1.89 0 0 1 .2-1.856c.337-.524.727-1.018 1.022-1.563a8.514 8.514 0 0 0 .44-1.37l-1.024.312-.2-.472c-2.508 1.163-4.045 1.093-4.711-.241 1.025.2 2.026.832 3.043.087-.046-.1-.07-.195-.092-.194a2.935 2.935 0 0 1-2.9-1.946 4.9 4.9 0 0 0-.849-.965 1.73 1.73 0 0 1 1.323 1.037c.729 1.18 1.236 1.384 2.564.993-.258-.314-.5-.6-.727-.888a2.321 2.321 0 0 1-.519-1.018c.3.207.607.412.907.623.531.374 1.043.777 1.6 1.112a.645.645 0 0 0 .619-.044.686.686 0 0 0 .026-.641 5.249 5.249 0 0 1-.715-1.287l1.618 1.542.231-1.161c.617.448.617.448.225 3.1l.988-1.151.277.152a5.657 5.657 0 0 1-.739 1.305c-1.028 1.039-1.209 2.47-1.813 3.7a1.245 1.245 0 0 0 .089.861 1.37 1.37 0 0 1-.4 1.768l.036.269c.693.04 1.389.049 2.078.127.893.1 1.316-.3 1.47-1.146a.859.859 0 0 1 .474-.556c.127-.047.488.186.523.343a.9.9 0 0 1-.241.649 1.9 1.9 0 0 0-.094 2.572 7.6 7.6 0 0 1 .458.844l-.285.222-1.041-1.078a9.469 9.469 0 0 0-.6.811 7.486 7.486 0 0 0-.375.842l-.265-.046v-1.311h-1.1c.221-.756.332-.779.95-.529a1.362 1.362 0 0 0 .923.014c.143-.056.283-.59.2-.666a1.432 1.432 0 0 0-.827-.342 8.173 8.173 0 0 0-3.836.543 2.694 2.694 0 0 1-1.722.148c-.455-.143-.756-.738-1.162-1.089-.14-.121-.393-.111-.6-.161-.006.2-.1.459-.006.582.49.653.08.8-.179.87-.483-.489-.8-1.091-1.2-1.143-.484-.064-1.029.332-1.6.55-.152-1.319 1.268-.841 1.7-1.631l-1.454-.14-.067-.305a8.715 8.715 0 0 0 1.028-.486 3.124 3.124 0 0 0 .543-.573 3.284 3.284 0 0 0-.685-.273c-.552-.088-.9.314-1.343.527-1.014.489-1.316 1.521-2.091 2.139a2.9 2.9 0 0 1-.853.265c1.08.615 2.066 1.233 3.109 1.731.259.124.7-.164 1.061-.213a2.306 2.306 0 0 1 .614.079c-.108.172-.175.428-.33.5a1.43 1.43 0 0 0-.853 1.961 1.023 1.023 0 0 1 .045.527 1.913 1.913 0 0 1-.27.479c-.165-.139-.427-.25-.475-.422a6.291 6.291 0 0 1-.119-1.125c-1.2.228-1.247.325-.908 1.822-.869-.087-.943-.22-.919-1.705Z" fill="#d9000d"/></g><g data-name="Group 11"><path data-name="Path 66" d="M15.326 11.974c.232-1.093.556-1.147 2.294-.489l.312-.667.251.023c-.023.369.082.823-.1 1.091-.434.657-.184.963.413 1.207.192.079.387.154.58.231l-.233.235c-.034.047-.061.126-.1.136-.392.087-.785.162-1.179.241a6.648 6.648 0 0 1 .386 1.093c.04.219-.069.653-.175.674a4.022 4.022 0 0 1-1.04-.043l.249-.26c-.168-.528-.192-1.345-.538-1.517a4.92 4.92 0 0 0-1.971-.067c-.163-.79.268-1.261 1.282-1.133a1.179 1.179 0 0 0 .677-.066.594.594 0 0 0 .207-.522c-.028-.124-.288-.261-.455-.276a4.177 4.177 0 0 0-.86.109Z" fill="#d9000d"/></g><g data-name="Group 12"><path data-name="Path 67" d="M12.047 10.174c1.845-.6 1.791-2.535 2.772-3.669a10.423 10.423 0 0 1-1.572-1.031c-.412-.391-.725-.908.1-1.332.212-.109.273-.511.422-.816.514.124.562.425.367.909a.786.786 0 0 0 .071.693c.109.113.479.078.675-.014.582-.274.9-.049.858.51a3.759 3.759 0 0 1-.476 1.363c-.358.693-.815 1.336-1.174 2.029a2.532 2.532 0 0 1-2.043 1.358Z" fill="#d9000d"/></g><g data-name="Group 13"><path data-name="Path 68" d="m20.778 2.693-.432 1.324 1.4-.913.194.3c-.673.419-1.333.862-2.028 1.24-.168.091-.461 0-.683-.063-.532-.147-1.056-.325-1.68-.521 0 .006.074-.312.23-.358.625-.181 1.059-1.132 1.932-.474.117.091.585-.283 1.067-.535Z" fill="#d9000d"/></g><g data-name="Group 14"><path data-name="Path 69" d="M15.047 2.749c.673-.917 2.36-1.22 1.144-2.749.721.2 1 .585.944 1.135a2.214 2.214 0 0 1-2.088 1.614Z" fill="#d9000d"/></g><g data-name="Group 15"><path data-name="Path 70" d="m16.138 2.974.969.486-.46.873-1.025-.471Z" fill="#d9000d"/></g><g data-name="Group 16"><path data-name="Path 71" d="M16.66 6.697c.169.938-.8.956-1.464 1.219l1.154-1.388Z" fill="#d9000d"/></g></g><g data-name="Group 18" fill="#d9000d"><path data-name="Path 72" d="M3.047 13.246a10.616 10.616 0 0 1-.012-3.262c0-.228.1-.348.288-.348.311-.048.587-.108.875-.18a3.717 3.717 0 0 0 .072-.623c0-.192 0-.42.012-.672a.5.5 0 0 0-.36.156c-.815.719-1.247 1.2-1.283 1.415a.772.772 0 0 1-.444.528 3.244 3.244 0 0 1-2 .575c-.216 0-.252-.048-.1-.167A22.968 22.968 0 0 1 1.81 9.504a7.783 7.783 0 0 0 2.087-2.183 8.9 8.9 0 0 0-1.559.408c-.348.228-.54.264-.588.084-.071-.18-.168-.372-.263-.564-.12-.192-.12-.288.011-.3a1.72 1.72 0 0 0 .408-.048c.564-.131 1.38-.3 2.423-.515 0-.132-.012-.216-.012-.264-.108-.336.036-.444.468-.312.4.108.54.252.48.4a36.58 36.58 0 0 1 1.906-.372c.12-.06.2.132.276.6.048.467-.108.623-.431.456a13.335 13.335 0 0 0-1.392.143 5.706 5.706 0 0 0 1.907 1.619 5.988 5.988 0 0 0 1.283.48 5.228 5.228 0 0 1 1.512.744c.12.12.072.18-.108.18a10.591 10.591 0 0 1-2.267-.12 9.026 9.026 0 0 0-1-.144c-.12.012-.155-.144-.131-.456a1.043 1.043 0 0 0-.228-.708 5.15 5.15 0 0 0-.948-.6c-.239-.12-.42-.2-.564-.276-.024.036-.035.072-.011.1a10.136 10.136 0 0 0-.036 1.391 2.142 2.142 0 0 1 .875 0c.612.084.9.2.852.372a7.269 7.269 0 0 0-.2 2.471c.024 1.223.012 1.882-.012 2.015-.024.491-.408.407-1.139-.264-.564-.444-.9-.636-1-.612a1.341 1.341 0 0 0-.5.12 1.342 1.342 0 0 0-.576.252c-.154.101-.262-.007-.286-.355Zm3.838-8.348c.071.145-.216.216-.852.205-.911-.049-1.427.071-1.535.347 0 .192-.348.336-1.032.4a6.283 6.283 0 0 1-1.391.072c-.252-.024-.264-.084-.012-.2a15.445 15.445 0 0 1 3.684-1.423 3.041 3.041 0 0 0 .648-.228c.144-.072.24.024.3.264a1.694 1.694 0 0 0 .19.563Zm-2.843 5.985a8.82 8.82 0 0 0 .78-.132c.084-.023.144.084.179.288 0 .216-.035.324-.1.336-.228.048-.48.108-.732.18a1.366 1.366 0 0 0-.528.264 1.691 1.691 0 0 0 .144.623c.024.072.312.037.876-.108.251-.1.348.012.3.3-.073.3.011.492.276.54.2.108.347.132.419.084a5.7 5.7 0 0 0 .108-1.607c-.024-.96-.144-1.511-.335-1.679-.157-.132-.5-.12-1.02.048a1.543 1.543 0 0 0-.66.288c-.048.036-.084.2-.1.479a.362.362 0 0 0 .393.096Z"/><path data-name="Path 73" d="M42.36 11.159a5.066 5.066 0 0 1 .168-2.219c.168-.743.348-1.055.564-.935.192.144.36.3.551.444.168.168.1.347-.2.527a2.225 2.225 0 0 0-.683 1.619c-.072.768-.012 1.212.168 1.272.312.036.6-.18.9-.66a4.767 4.767 0 0 0 .576-1.6.284.284 0 0 1 .024-.156.862.862 0 0 1-.324-.336c-.216-.276-.12-.384.276-.324a31.805 31.805 0 0 1 1.991-.587c-.048-.024-.06-.06-.048-.132a5.545 5.545 0 0 1-.12-.792 1.2 1.2 0 0 0-.456.192c-.216.168-.419.072-.576-.288-.191-.359-.131-.527.181-.491.047-.012.3-.072.743-.168-.168-1.2-.18-1.847-.036-1.919.1-.048.288 0 .612.119.3.121.395.216.3.265-.2.143-.276.611-.192 1.379.276-.06.623-.144 1.055-.252.048-.288.108-.588.192-.935a11.627 11.627 0 0 0 .24-1.452c-.072-.336.072-.407.456-.228.347.18.467.324.36.444a8.681 8.681 0 0 0-.528 2c.1-.024.2-.048.312-.072.659-.228.971-.228.959 0a1.966 1.966 0 0 0 0 .54c.012.143-.216.192-.683.12-.288.06-.528.12-.744.167a5.551 5.551 0 0 0-.168 1.044c.324-.06.636-.108.959-.156a3.758 3.758 0 0 0 .924-.192c.072-.024.144.036.216.156a.364.364 0 0 0 .228.264c.1.036.144.2.155.468s-.084.359-.227.275a7.348 7.348 0 0 0-2.063-.035 3.8 3.8 0 0 0 .7.731 5.663 5.663 0 0 0 1.5 1.008 17.335 17.335 0 0 1 1.895.743c.119.072.072.144-.144.216a2.24 2.24 0 0 1-.732.108c-1.307.048-1.979.012-1.979-.1-.024-.12-.048-.228-.06-.336a2.252 2.252 0 0 0-.575-.935c-.048.048-.084.1-.108.12-.42.444-.588.767-.48.971.1.348-.012.516-.288.492a3.766 3.766 0 0 0-.612.06c-.2.036-.575.12-1.067.252a.98.98 0 0 0 .264.743 1.506 1.506 0 0 0 1.151.348 1.715 1.715 0 0 0 1.176-.252 3.005 3.005 0 0 0 .071-1.463c-.047-.24-.012-.264.132-.1a11.718 11.718 0 0 1 .828 1.835q.108.63.108.684c-.024.06-.12.1-.264.107-.276.025-.72.049-1.307.049a7.239 7.239 0 0 1-1.392-.072c-.168-.012-.312-.012-.407-.012s-.348-.288-.7-.912a2.494 2.494 0 0 1-.2-1.463 5.544 5.544 0 0 0 .012-1.187c-.1.132-.168.227-.24.311-.216.216-.312.4-.276.564a.344.344 0 0 1-.227.372 2.43 2.43 0 0 1-1.044.42l-.348.7a2.47 2.47 0 0 0-.287.563c-.1.216-.252.132-.48-.264a3.289 3.289 0 0 1-.682-1.667Zm.887-4.329a1.857 1.857 0 0 1-.119-1.26c.2-.467.419-.575.66-.336a1.289 1.289 0 0 1 .215.42 1.553 1.553 0 0 0 .324.588c.12.156.228.323.336.467.048.073.012.156-.084.276a.512.512 0 0 1-.5.108c-.24-.048-.432-.071-.576-.095-.172-.013-.256-.073-.256-.168Zm1.332 2.926a5.125 5.125 0 0 1-.18 1.415c.072-.048.144-.1.24-.168a7.62 7.62 0 0 0 .887-1.139c.264-.384.348-.66.3-.828a8.778 8.778 0 0 0-1.271.42h-.036a1.039 1.039 0 0 0 .06.3Zm3.85-.3a5.046 5.046 0 0 0-1.26-.731c-.119.024-.239.047-.335.071a4.489 4.489 0 0 0-.42.636 1.94 1.94 0 0 0-.252.4.07.07 0 0 0 .048.012 3.092 3.092 0 0 0 .707-.192 4.031 4.031 0 0 1 .672-.18 4.272 4.272 0 0 1 .888.024c-.024-.016-.048-.028-.048-.04Zm-1.787.863a2.527 2.527 0 0 0-.192.948c.048-.012.108-.036.192-.06a5.058 5.058 0 0 1 .852-.264.776.776 0 0 0 .275-.611 1.09 1.09 0 0 0-.216-.348.242.242 0 0 0-.216-.024c-.323.167-.551.288-.69.359Zm.18-3.214a4.7 4.7 0 0 0 .132.936c.168-.048.335-.084.5-.132a4.785 4.785 0 0 0 .192-.756.909.909 0 0 1 .048-.3c-.357.096-.647.18-.872.252Z"/></g></svg>